<?xml version="1.0" encoding="UTF-8" standalone="no"?>
<!-- Created with Inkscape (http://www.inkscape.org/) -->

<svg
   width="297mm"
   height="210mm"
   viewBox="0 0 297 210"
   version="1.1"
   id="svg5"
   inkscape:version="1.1 (c4e8f9ed74, 2021-05-24)"
   sodipodi:docname="anansi.svg"
   xmlns:inkscape="http://www.inkscape.org/namespaces/inkscape"
   xmlns:sodipodi="http://sodipodi.sourceforge.net/DTD/sodipodi-0.dtd"
   xmlns="http://www.w3.org/2000/svg"
   xmlns:svg="http://www.w3.org/2000/svg">
  <sodipodi:namedview
     id="namedview7"
     pagecolor="#ffffff"
     bordercolor="#666666"
     borderopacity="1.0"
     inkscape:pageshadow="2"
     inkscape:pageopacity="0.0"
     inkscape:pagecheckerboard="0"
     inkscape:document-units="mm"
     showgrid="false"
     inkscape:snap-bbox="true"
     inkscape:snap-nodes="true"
     inkscape:zoom="0.41986485"
     inkscape:cx="306.05086"
     inkscape:cy="313.19602"
     inkscape:window-width="1366"
     inkscape:window-height="739"
     inkscape:window-x="0"
     inkscape:window-y="0"
     inkscape:window-maximized="1"
     inkscape:current-layer="layer1"
     inkscape:snap-global="true"
     inkscape:snap-bbox-midpoints="true" />
  <defs
     id="defs2" />
  <g
     inkscape:label="Layer 1"
     inkscape:groupmode="layer"
     id="layer1">
    <circle
       style="fill:#e8cc48;fill-opacity:1;stroke-width:0.208372"
       id="path1031-3"
       cx="145.75214"
       cy="106.19267"
       inkscape:transform-center-x="28.835709"
       inkscape:transform-center-y="-6.0193831"
       r="102.92292" />
    <path
       id="path1031"
       style="fill:#626262;stroke-width:0.208396"
       d="m 145.75213,3.2458692 a 102.92292,102.94682 0 0 0 -31.08694,4.8361896 c 8.44556,3.7835902 19.88684,6.0179172 28.80484,5.6123102 8.33005,-0.378866 17.06742,-2.271803 23.1235,-5.0096092 3.05516,-1.3811623 4.10634,-1.7364834 5.1366,-1.736223 h 1.07295 l -1.37197,0.6745842 c -5.49749,2.702648 -13.7893,5.361679 -19.72724,6.3261 -2.53502,0.411732 -9.18276,0.912192 -11.14964,0.839458 -1.13216,-0.04187 -3.98244,-0.273702 -6.33368,-0.515737 -6.69885,-0.689579 -14.79139,-2.915661 -20.8997,-5.7203832 A 102.92292,102.94682 0 0 0 101.43296,13.29374 c 2.01156,5.729641 4.79243,13.60526 5.16473,14.58698 0.25052,0.660575 1.77891,4.932702 3.39676,9.493929 1.61787,4.561228 3.02154,8.502052 3.11935,8.757014 0.18907,0.492838 2.14815,1.790486 5.42859,3.596107 l 2.00367,1.102855 3.3852,-2.467108 c 1.86177,-1.356935 5.20555,-3.81381 7.43074,-5.459501 10.06099,-7.440806 10.39282,-7.657244 10.39282,-6.787551 0,0.188736 -0.1158,0.344662 -0.25732,0.346341 -0.14151,0.0016 -1.13012,0.734837 -2.19665,1.629654 -1.06656,0.894821 -2.59908,2.167445 -3.40581,2.828022 -0.80672,0.660576 -2.71283,2.258694 -4.23602,3.551364 -3.0875,2.62025 -3.21045,2.72233 -6.44122,5.371524 -1.26454,1.03691 -2.18855,1.996159 -2.05344,2.131323 0.13513,0.135162 1.88955,0.784317 3.89882,1.442667 11.62837,3.810061 23.40296,2.639849 35.00435,-3.478479 1.65896,-0.874891 3.01633,-1.683188 3.01633,-1.796538 0,-0.113341 -0.26985,-0.43788 -0.60005,-0.721334 -0.33022,-0.283449 -1.45634,-1.283211 -2.50222,-2.221298 -1.04588,-0.938094 -2.97553,-2.655143 -4.28828,-3.815767 -1.31278,-1.160629 -2.78639,-2.473367 -3.27464,-2.916994 -0.48828,-0.443627 -1.93307,-1.727439 -3.21032,-2.853155 -1.2772,-1.125716 -2.16496,-2.09899 -1.97302,-2.162989 0.33162,-0.110568 1.58472,0.75434 9.46005,6.529178 7.039,5.161552 7.90049,5.742405 8.14038,5.489661 0.13546,-0.142718 0.88857,-2.344051 1.67399,-4.891984 0.78545,-2.547933 1.86998,-6.022388 2.40976,-7.721011 0.53975,-1.698623 1.54456,-4.941448 2.23284,-7.206277 0.68829,-2.264829 1.76324,-5.739283 2.38913,-7.72101 0.6259,-1.981726 1.64148,-5.263322 2.25648,-7.292236 0.24954,-0.8232308 0.47521,-1.4741715 0.68648,-2.0373183 A 102.92292,102.94682 0 0 0 145.75213,3.2458692 Z m 33.59419,5.6414673 c -0.22488,0.8149114 -0.53622,1.8596035 -1.0654,3.5513615 -1.42893,4.567848 -5.3109,17.056044 -8.00068,25.736702 -1.14037,3.680351 -2.16997,7.094274 -2.2876,7.586297 -0.19691,0.823566 0.10299,1.123094 3.77466,3.774546 l 3.98827,2.880299 -0.20755,4.591894 -0.20707,4.592389 1.45893,2.099155 c 1.46642,2.109371 7.73279,9.591202 8.13734,9.715589 0.18661,0.05742 3.90696,-5.435618 7.02722,-10.375594 0.97622,-1.545597 0.9769,-1.550921 0.37488,-2.826011 -0.33175,-0.702669 -1.59978,-3.362458 -2.81781,-5.910399 -2.12961,-4.454817 -3.41635,-7.143945 -7.88254,-16.471488 -1.12962,-2.359198 -2.86445,-5.987736 -3.85509,-8.063832 -0.99063,-2.076094 -1.93794,-4.035794 -2.10521,-4.354628 -0.17262,-0.32905 -0.17483,-0.659504 -0.005,-0.764564 0.16467,-0.101791 1.03642,1.085472 1.93733,2.638518 0.90095,1.553044 2.07904,3.532022 2.61783,4.397858 0.53879,0.865835 0.97947,1.678664 0.97947,1.806597 0,0.127931 0.51521,1.041319 1.14481,2.029275 1.83349,2.87705 3.65858,5.997361 3.65858,6.255729 0,0.131151 0.30888,0.672463 0.68649,1.202891 0.7411,1.041018 2.86454,4.678914 3.70584,6.348221 0.28534,0.566205 0.80356,1.439505 1.15134,1.940796 0.34779,0.501311 1.19126,1.891087 1.87453,3.088411 0.68328,1.197345 1.5238,2.668789 1.86798,3.269871 0.34418,0.601091 1.02027,1.717176 1.50215,2.480672 0.48184,0.763507 0.87593,1.648562 0.87593,1.966444 0,0.503152 -1.51957,3.18233 -7.25836,12.796966 -0.72514,1.214875 -1.31503,2.295963 -1.31117,2.40226 0.004,0.106256 1.03067,0.950529 2.28208,1.876473 2.85226,2.110383 7.91653,4.781098 10.43956,5.505245 l 1.92225,0.551426 16.8275,-11.557893 16.827,-11.557893 -3.3661,-1.129484 c -12.54049,-4.208549 -24.30332,-13.878508 -36.06472,-29.648988 -1.61872,-2.170461 -3.48121,-4.795942 -4.13902,-5.833988 -4.23834,-6.688014 -6.24296,-10.093801 -8.40371,-14.265774 a 102.92292,102.94682 0 0 0 -6.08441,-2.3253495 z m 7.50965,2.9265425 c 0.0704,0.128371 0.13501,0.23644 0.20605,0.367452 3.00253,5.537827 3.6922,6.680137 7.82676,12.954308 2.51392,3.814847 7.13384,10.095076 8.94092,12.154561 11.50001,13.106212 22.62894,21.055389 32.94387,23.53048 0.68509,0.164394 1.10528,0.258928 1.47601,0.243796 A 102.92292,102.94682 0 0 0 186.85597,11.813879 Z m -86.41908,1.974992 A 102.92292,102.94682 0 0 0 46.75717,78.254774 c 0.179132,0.09184 0.298997,0.155758 0.479939,0.248322 4.717296,2.413241 11.170832,5.753695 14.34086,7.423423 3.17003,1.669758 5.91744,3.036133 6.105522,3.036133 0.44056,0 7.038285,-3.29606 8.184582,-4.088722 0.480599,-0.332327 1.139146,-0.699454 1.463434,-0.816324 0.670275,-0.241589 7.032355,-4.472723 9.879194,-6.569899 4.01333,-2.956506 9.601278,-7.897481 9.601278,-8.490099 0,-0.173115 -0.610226,-1.195561 -1.355888,-2.27156 l -1.35589,-1.955895 1.530778,-6.691533 c 0.841896,-3.68035 2.073638,-9.16243 2.737408,-12.182209 0.66377,-3.01977 1.425591,-6.417183 1.692613,-7.5496 0.267,-1.132414 0.89509,-3.873206 1.3961,-6.090853 0.50095,-2.217643 1.06764,-4.031914 1.25888,-4.031914 0.20629,0 0.26273,0.453277 0.1392,1.114921 -0.11453,0.613392 -0.36328,2.312348 -0.55281,3.775052 -0.18953,1.462702 -0.50895,3.856049 -0.71011,5.31875 -0.20115,1.462704 -0.50345,3.663193 -0.6719,4.889975 -0.16846,1.226782 -0.6289,4.701232 -1.022703,7.721007 -0.393794,3.019774 -0.939678,7.094666 -1.213162,9.055593 -0.482779,3.461614 -0.476173,3.599025 0.215594,4.718561 0.391858,0.634194 0.836628,1.153134 0.988522,1.153134 0.278079,0 3.448259,-3.753784 4.971769,-5.886773 2.89026,-4.046509 7.04679,-11.845381 7.04679,-13.222222 0,-0.60737 -1.88823,-6.192035 -4.79386,-14.177304 -0.78976,-2.170465 -1.47792,-4.100547 -1.52876,-4.289284 -0.0509,-0.188735 -0.18457,-0.574954 -0.2975,-0.858057 -0.11294,-0.283105 -0.6198,-1.749928 -1.12623,-3.259816 -0.50644,-1.509885 -1.95693,-5.602187 -3.22339,-9.093803 -0.21513,-0.593136 -0.31597,-0.883827 -0.50054,-1.394907 z m 13.48703,34.409768 c -0.20271,-0.09484 1.57406,5.188124 1.94889,5.794786 0.18338,0.29676 3.59098,-1.975338 3.57116,-2.381149 -0.009,-0.173568 -4.40318,-2.891332 -5.52005,-3.413637 z m -1.36946,0.124161 -1.09557,2.389698 c -2.23852,4.883589 -6.79712,11.852331 -9.87717,15.099177 l -0.98853,1.042049 1.79763,2.411801 c 0.98848,1.326539 2.56888,3.414692 3.51235,4.640655 0.94345,1.225951 2.84688,3.731898 4.22999,5.568567 1.38309,1.83668 2.7817,3.50603 3.10779,3.709721 0.62776,0.392132 13.08028,5.702492 13.48351,5.750027 0.13005,0.01538 -0.002,-0.671039 -0.293,-1.525594 -0.36033,-1.057784 -0.8407,-1.715261 -1.50515,-2.058933 -0.5368,-0.277662 -1.64027,-0.942365 -2.45193,-1.477349 -0.81172,-0.534975 -2.29034,-1.490471 -3.28621,-2.12329 -0.99585,-0.632806 -1.87718,-1.46938 -1.95796,-1.858865 -0.0808,-0.389477 -0.53601,-5.958204 -1.01163,-12.375228 -0.91865,-12.394306 -0.80823,-11.78261 -3.27213,-18.175037 z m 52.90531,0.949548 c -0.20031,0.01108 -0.51813,0.166899 -0.95637,0.465467 -1.90127,1.295372 -6.86137,3.531185 -10.39782,4.686888 -9.69269,3.167575 -19.86253,2.847832 -29.88887,-0.939483 l -2.27154,-0.858061 -2.01675,1.638206 c -1.12423,0.913037 -1.99601,1.891292 -1.96949,2.210239 0.28828,3.468131 0.67141,5.358411 1.64737,8.122648 0.63302,1.792964 2.26237,6.371704 3.62038,10.174528 l 2.46904,6.914227 2.28311,1.417533 c 8.11741,5.041519 10.53807,6.519515 10.69885,6.531184 0.10003,0.0075 0.67853,-0.514466 1.28603,-1.15865 0.8325,-0.882808 1.10513,-1.483008 1.10513,-2.435934 0,-1.60748 0.84396,-3.398324 1.94035,-4.116867 0.95136,-0.623483 3.58714,-1.616674 3.77971,-1.424071 0.0683,0.06829 -0.18375,0.80345 -0.56035,1.633677 -0.37658,0.830228 -0.68838,1.934514 -0.69252,2.453539 -0.006,0.836659 0.11906,0.943677 1.10763,0.947022 0.61324,0.0022 1.69411,0.0997 2.4017,0.216651 l 1.28655,0.212627 -0.002,-1.331561 c -9.7e-4,-0.732458 -0.23275,-1.774207 -0.51461,-2.314795 -0.6385,-1.224542 -0.63741,-1.247632 0.0577,-1.247632 0.97504,0 3.43502,1.646754 4.1516,2.778755 l 0.68347,1.079227 0.70458,-2.186104 c 0.38748,-1.202498 1.34328,-4.271292 2.12378,-6.819223 0.78049,-2.547942 1.8606,-6.022385 2.40069,-7.72101 0.54011,-1.698625 1.92909,-6.176638 3.0862,-9.951349 1.15711,-3.774722 2.26928,-7.292958 2.47156,-7.818028 0.30617,-0.79477 0.29866,-1.178115 -0.0352,-1.15965 z m 1.32221,0.479039 c -0.19875,0.222964 -2.70327,8.154215 -5.66327,17.935265 -0.42836,1.415511 -1.87274,6.094151 -3.20982,10.396716 -1.33703,4.302566 -2.43084,7.880898 -2.43084,7.951738 0,0.15165 6.42021,-3.72068 8.39918,-5.06591 0.75138,-0.510765 1.48665,-0.928934 1.63379,-0.928934 0.52499,0 5.06236,-3.195977 5.06474,-3.567449 0.003,-0.409737 0.88593,-12.235795 1.20863,-16.179933 0.16671,-2.037359 0.0964,-2.550521 -0.44775,-3.259816 -0.35515,-0.463014 -1.4725,-2.350123 -2.48314,-4.193277 -1.01063,-1.843132 -1.9427,-3.232919 -2.07152,-3.0884 z m 3.26106,2.613384 c -0.0314,6.77e-4 -0.0579,0.01075 -0.0784,0.03109 -0.17288,0.172932 1.72817,3.622748 1.99667,3.623243 0.1031,1.93e-4 0.18062,-0.375925 0.17186,-0.835434 -0.0139,-0.721812 -1.61885,-2.829119 -2.09013,-2.818976 z m 68.21055,10.517865 c -0.0852,0 -7.72024,5.201364 -16.96669,11.558883 l -16.81192,11.55941 0.21611,2.081044 c 1.26027,12.142267 5.71419,25.038527 11.37227,32.927897 l 1.94136,2.70738 5.87485,-0.2262 c 6.06865,-0.2335 10.54884,-0.44509 15.73796,-0.74343 2.53659,-0.14586 3.00176,-0.0917 3.00176,0.35034 0,0.39177 -0.40945,0.52982 -1.62979,0.54892 -0.89629,0.014 -1.93839,0.0753 -2.31577,0.13622 -0.37738,0.0609 -3.00176,0.20415 -5.83212,0.3187 -2.83039,0.11455 -7.25506,0.30737 -9.83245,0.42827 l -4.68632,0.21967 2.14491,3.29651 c 1.17956,1.8129 3.67407,5.6616 5.54365,8.55295 1.86957,2.89131 4.51889,6.95106 5.88692,9.0219 1.36801,2.07084 2.48712,3.83632 2.48712,3.92283 0,0.92006 -1.47092,-0.90043 -9.36959,-11.5961 -1.56803,-2.12326 -4.0766,-5.50256 -5.57483,-7.50987 l -2.72384,-3.64989 -1.00258,1.59095 c -2.47955,3.93431 -5.0229,10.49042 -6.0191,15.51692 -0.43273,2.18349 -0.54106,8.56722 -0.18897,11.12408 0.3133,2.27514 1.68375,6.84704 2.81985,9.40697 l 0.91463,2.06094 5.85474,3.14923 c 2.01857,1.08562 3.54154,1.92796 5.28336,2.88232 a 102.92292,102.94682 0 0 0 24.29594,-66.32681 102.92292,102.94682 0 0 0 -9.3711,-42.900362 l 0.083,0.872634 c 0.41155,4.328882 1.60144,12.130282 2.39465,15.701398 0.74705,3.363211 1.12255,7.093021 0.66839,6.638761 -0.76179,-0.761991 -3.40104,-14.854308 -3.79728,-20.276708 -0.13446,-1.840166 -0.31382,-3.345757 -0.39903,-3.345757 z m -62.79453,0.651961 -0.14773,1.008861 c -0.0814,0.554751 -0.1889,2.786789 -0.23873,4.960334 -0.0498,2.173553 -0.14474,4.236756 -0.21055,4.584861 -0.0658,0.348101 -0.13132,1.425801 -0.14577,2.395215 l -0.0261,1.762861 -4.37423,2.830034 c -7.27058,4.703999 -11.51025,7.409398 -12.86336,8.209104 -1.09337,0.646187 -1.2317,0.857471 -0.93122,1.41904 0.42818,0.800222 0.57461,0.807514 2.25947,0.109578 0.73064,-0.302655 1.94595,-0.828142 2.70072,-1.1672 0.75477,-0.33907 3.07054,-1.331089 5.14615,-2.204701 2.07561,-0.873623 4.08278,-1.734425 4.46016,-1.913166 0.37738,-0.178729 2.41869,-1.074346 4.53656,-1.990073 l 3.85054,-1.664844 2.27055,-3.372911 c 1.24864,-1.854962 2.34287,-3.562223 2.43185,-3.794155 0.089,-0.231943 -0.52796,-1.172899 -1.37146,-2.091111 -1.61117,-1.753838 -5.86848,-6.945232 -6.80056,-8.292539 z m -56.38348,2.951162 0.22364,2.592777 c 0.12295,1.425987 0.4015,4.127029 0.61866,6.002382 l 0.3945,3.409607 1.872,1.117943 c 1.02945,0.614912 1.89771,1.118439 1.92982,1.118439 0.0322,0 -0.32567,-1.042328 -0.79504,-2.3163 -0.46938,-1.273971 -1.61618,-4.47853 -2.54845,-7.120832 z m -21.64345,3.651399 c -0.122923,0.03109 -0.251867,0.133894 -0.38596,0.308633 -1.683039,2.193268 -14.128873,11.689486 -18.210018,13.894315 -0.774656,0.418492 -2.489016,1.375376 -3.809858,2.126795 -1.320848,0.75142 -3.211712,1.735146 -4.20235,2.186105 -0.990636,0.450948 -1.801152,0.902273 -1.801152,1.002828 0,0.229137 27.142464,14.358976 27.634402,14.385916 0.198125,0.0109 0.507237,-0.12473 0.686487,-0.3011 0.179261,-0.17636 2.101241,-1.31419 4.271209,-2.52845 2.16995,-1.214218 4.56274,-2.562697 5.3175,-2.996394 3.15164,-1.81101 4.86211,-2.770775 5.83515,-3.275411 0.97127,-0.503689 1.50074,-0.447044 9.00577,0.968144 5.42636,1.023241 7.974,1.376397 7.974,1.104878 0,-0.219436 -0.16381,-0.868697 -0.36385,-1.442667 -0.37689,-1.08138 -1.33803,-1.458475 -17.59489,-6.908688 -1.63972,-0.549729 -1.74352,-0.675868 -7.67096,-9.307949 -3.30483,-4.81276 -6.15646,-8.905074 -6.337212,-9.093793 -0.108606,-0.113419 -0.225344,-0.154221 -0.348268,-0.123162 z m 90.93501,8.242777 c -0.20011,0.03678 -0.32932,0.220555 -0.45027,0.535844 -0.59223,1.543684 -4.4273,7.617596 -4.93409,7.814511 -0.70481,0.273885 -22.50833,8.350312 -23.81046,8.819855 -0.70305,0.253506 -0.91973,0.544512 -0.86843,1.164684 0.0829,1.000988 0.0454,0.999924 4.25513,0.117126 1.86052,-0.390173 3.61426,-0.765979 3.8973,-0.834937 0.28304,-0.06894 2.05863,-0.445883 3.94557,-0.837457 1.88691,-0.39156 4.83096,-1.031982 6.54272,-1.423566 l 3.11231,-0.712272 3.26309,1.744267 c 1.79472,0.959163 3.43229,1.743761 3.63898,1.743761 0.30951,0 14.36664,-9.467418 15.28767,-10.296193 0.15513,-0.139606 -0.90852,-0.688173 -2.3635,-1.218974 -2.81109,-1.025487 -7.27609,-3.574752 -9.641,-5.504738 -1.01208,-0.825958 -1.5415,-1.17319 -1.87502,-1.111911 z m -141.86778,0.83594 a 102.92292,102.94682 0 0 0 -3.670144,26.976795 102.92292,102.94682 0 0 0 6.711597,36.45815 c 1.619111,-0.26994 3.775515,-0.63301 4.202351,-0.69871 0.747902,-0.11512 4.369832,-0.70626 8.048393,-1.31348 l 6.687976,-1.10385 1.468465,-2.38066 c 1.594304,-2.58449 2.472356,-5.13408 3.419871,-9.92974 0.781082,-3.95329 0.874729,-15.57179 0.154784,-19.21657 -0.260957,-1.32116 -0.515794,-2.63389 -0.566375,-2.917 -0.570709,-3.19456 -2.219353,-7.954351 -4.123448,-11.903714 l -1.520224,-3.152755 -5.577839,-2.913468 c -3.067675,-1.602232 -9.900264,-5.147311 -15.183642,-7.877844 -0.0189,-0.0097 -0.03292,-0.01743 -0.05175,-0.02711 z m 156.87955,7.78687 c -0.0809,-0.08087 -3.56922,2.198323 -7.75186,5.064889 l -7.60467,5.211699 0.96743,0.581078 c 0.53206,0.319474 3.82337,2.095047 7.31417,3.945979 8.65961,4.59156 11.41662,6.22069 11.92458,7.0449 0.57139,0.92717 0.90189,0.90373 0.40303,-0.0287 -1.39656,-2.61014 -3.49116,-10.722376 -4.45362,-17.249116 -0.35878,-2.433072 -0.71823,-4.489942 -0.79906,-4.570783 z m -75.58755,0.369967 c -0.0623,0.06227 0.0985,0.616881 0.35733,1.232543 0.41378,0.984342 0.94189,1.317979 4.37924,2.766195 3.50968,1.478684 4.8158,1.949755 4.39533,1.584917 -0.56265,-0.488224 -9.04242,-5.673155 -9.1319,-5.583655 z m -58.452961,3.649883 c -0.277322,-0.0043 -0.0414,0.747698 0.721163,2.360545 1.508746,3.190987 3.288418,8.65846 4.146065,12.73715 1.22251,5.8139 1.108944,16.24931 -0.253792,23.33444 -0.161668,0.84056 -0.153564,0.84437 0.392495,0.17192 0.306522,-0.37749 2.730208,-4.3152 5.386367,-8.75047 2.65615,-4.4353 5.205479,-8.71873 5.664779,-9.51858 0.686907,-1.19618 1.454188,-1.79818 4.32447,-3.39253 1.919241,-1.06605 4.003317,-2.24653 4.631532,-2.62292 l 1.142306,-0.68413 -4.058119,-2.12077 c -2.232091,-1.1664 -7.917888,-4.098557 -12.635196,-6.5161 -4.717294,-2.417543 -8.773876,-4.553694 -9.014296,-4.746715 -0.205965,-0.165373 -0.355334,-0.250516 -0.447774,-0.25184 z m 61.349691,4.146527 c -0.16663,-0.0157 -0.2548,0.0054 -0.2548,0.06281 0,0.09184 0.22825,0.713713 0.50759,1.382344 0.4562,1.092133 0.6916,1.249064 2.31575,1.545201 2.65697,0.484459 2.66605,0.483416 2.66605,-0.421728 0,-0.694862 -0.31111,-0.949637 -1.87301,-1.534156 -1.655,-0.619354 -2.8617,-0.987503 -3.36158,-1.034489 z m 48.88387,1.690472 -4.0707,0.856051 c -2.23874,0.470747 -6.69503,1.393711 -9.9028,2.051394 -3.20776,0.657671 -6.17949,1.278151 -6.60405,1.378831 -0.51917,0.12311 -0.77193,0.43737 -0.77193,0.95959 0,0.67157 0.77647,1.12959 5.74671,3.39052 3.16059,1.43774 5.94445,2.59132 6.18694,2.5631 0.2425,-0.0282 3.3582,-2.05382 6.92366,-4.50091 l 6.48294,-4.449126 -1.99563,-1.124472 z m -65.06658,2.166007 c -0.97301,0.04989 -2.66519,1.038039 -8.6198,4.867359 -0.95317,0.61297 -2.40349,1.45633 -3.22288,1.87445 l -1.48957,0.76054 4.75316,2.50279 c 4.71189,2.48143 4.76571,2.49955 6.13918,2.07704 0.76208,-0.23443 5.55392,-1.9386 10.64862,-3.78713 5.09468,-1.8485 9.31719,-3.40502 9.38315,-3.45886 0.12328,-0.10054 -0.61958,-2.54552 -0.77342,-2.54552 -0.40713,0 -15.69717,-2.102573 -16.435,-2.260008 -0.11998,-0.02561 -0.24445,-0.03785 -0.38344,-0.03066 z m 70.17956,0.560483 -6.54375,4.496876 c -3.59899,2.47337 -6.47012,4.61559 -6.38043,4.7608 0.0898,0.14519 2.52246,1.30756 5.40598,2.58271 2.88352,1.27514 5.36795,2.43431 5.52104,2.57619 0.15312,0.14189 1.04313,2.55749 1.97806,5.3675 0.93494,2.81003 1.7687,5.2995 1.85291,5.53239 0.10086,0.27901 0.65504,0.37384 1.62428,0.27798 0.809,-0.08 4.01828,-0.23657 7.1317,-0.34784 3.11342,-0.1113 6.74161,-0.27092 8.06248,-0.35439 1.32083,-0.0834 4.33134,-0.24736 6.68999,-0.36445 2.35864,-0.11705 4.34894,-0.27245 4.42347,-0.34532 0.0745,-0.0728 -0.27332,-0.63767 -0.77343,-1.25515 -0.50014,-0.61751 -2.38792,-3.17927 -4.19481,-5.69274 -3.46309,-4.81736 -3.94915,-5.25522 -8.89017,-8.00956 -1.69823,-0.94666 -4.09102,-2.30588 -5.31753,-3.02055 -1.22649,-0.71467 -3.69679,-2.12095 -5.48937,-3.12508 -1.79258,-1.00416 -3.67335,-2.10775 -4.17973,-2.45255 z m -51.54942,1.945336 c -0.35421,0.036 -0.28528,0.32204 -0.0844,1.07168 0.23711,0.88505 0.49813,0.93026 2.07503,0.35992 1.02698,-0.37144 1.53859,-0.93755 0.88199,-0.97569 -0.14152,-0.008 -0.91329,-0.1419 -1.71521,-0.29708 -0.57991,-0.11219 -0.94486,-0.18043 -1.15739,-0.15883 z m 5.24967,5.27501 c -0.61618,0 -3.49174,1.10984 -3.49174,1.34765 0,0.57834 0.46126,0.62597 1.48656,0.15332 0.59751,-0.27546 1.35637,-0.5894 1.68654,-0.69771 0.60407,-0.19811 0.84413,-0.80326 0.31864,-0.80326 z m -38.0488,0.38756 -1.229752,0.83594 c -0.676209,0.4596 -1.34445,0.83544 -1.485044,0.83544 -0.140595,0 -1.422349,0.74731 -2.848474,1.66082 -1.426131,0.91353 -3.327452,2.12031 -4.225467,2.68174 -1.368872,0.85582 -2.85393,2.73696 -9.18617,11.63681 -4.154142,5.83857 -7.745167,10.84701 -7.980043,11.13012 -0.234859,0.28311 -0.798275,1.11729 -1.252364,1.85385 l -0.825698,1.33912 0.832233,-0.20007 c 0.457736,-0.11018 5.541292,-0.97999 11.296389,-1.93277 5.755111,-0.95278 11.003839,-1.81654 11.664262,-1.91919 0.660425,-0.10261 2.34776,-0.37872 3.749552,-0.61376 l 2.548956,-0.42726 4.3913,-10.46006 c 2.41525,-5.75294 4.35613,-10.65915 4.31292,-10.90293 -0.0432,-0.24376 -2.25744,-1.58488 -4.9205,-2.98032 z m 60.45566,1.06717 c -0.0728,0.0157 0.0454,0.13491 0.33119,0.35137 0.55762,0.42237 1.63539,1.33325 2.39516,2.02425 1.34924,1.22714 2.12963,1.31837 2.74545,0.3217 0.10375,-0.16793 -0.004,-0.38447 -0.23821,-0.48105 -0.23478,-0.0966 -1.66208,-0.72861 -3.17161,-1.40446 -1.28929,-0.57725 -1.94077,-0.83802 -2.06198,-0.81181 z m -27.73694,0.50066 c -0.52442,0.0372 -4.47627,1.32682 -8.7821,2.86571 l -7.82878,2.79786 4.16416,2.1851 c 2.2903,1.20162 4.24674,2.18963 4.34758,2.19568 0.10086,0.005 0.47063,-0.47528 0.82167,-1.06969 0.98106,-1.66117 5.23068,-5.99312 6.92568,-7.05949 1.70828,-1.07472 1.88277,-2.02406 0.35179,-1.91517 z m 34.34601,2.86622 c -0.55416,0.0276 -0.85859,0.3231 -1.26491,0.81282 -0.36386,0.43849 -0.24357,0.74803 0.73373,1.89005 0.64281,0.75114 1.38823,1.79755 1.6564,2.32534 0.26816,0.5278 0.81377,1.50041 1.21266,2.16098 0.3989,0.66058 1.22527,2.53014 1.83634,4.15506 l 1.11114,2.9547 1.25888,-0.10657 c 0.69255,-0.0586 3.01822,-0.18762 5.16777,-0.28653 2.14957,-0.0989 3.96416,-0.23577 4.03249,-0.30411 0.26534,-0.26543 -2.0526,-7.30178 -2.57959,-7.8306 -0.30694,-0.30797 -3.31658,-1.80923 -6.68799,-3.33622 -3.9362,-1.7828 -5.55331,-2.48093 -6.47692,-2.43493 z m -52.85303,3.47849 c -0.62329,0.0887 -1.06903,0.91121 -2.56906,4.74016 -0.99817,2.54795 -2.55864,6.51987 -3.46811,8.82689 -0.90947,2.30702 -1.597,4.25122 -1.52777,4.32045 0.0693,0.0693 0.78093,0.0203 1.58154,-0.10908 0.80061,-0.12939 3.69415,-0.59218 6.43018,-1.02847 2.73603,-0.43627 5.1428,-0.96235 5.34867,-1.16869 0.20587,-0.20635 0.64375,-1.53315 0.97294,-2.94867 0.32919,-1.41552 1.12574,-3.71523 1.76999,-5.11014 0.64425,-1.39493 1.17145,-2.65723 1.17145,-2.80541 0,-0.48781 -8.9332,-4.82758 -9.70983,-4.71704 z m 99.83272,9.9443 c -0.96528,-0.0375 -2.62185,0.006 -5.47281,0.11512 -3.63006,0.13732 -6.83161,0.2924 -7.11463,0.34482 -0.28306,0.0524 -3.67968,0.20742 -7.54786,0.34434 -3.86818,0.13692 -7.07702,0.28755 -7.13073,0.33478 -0.0537,0.0473 1.37452,4.4759 3.17363,9.84126 1.79912,5.36538 3.27111,9.95564 3.27111,10.2007 0,0.24504 -0.94563,1.75576 -2.10116,3.35682 -1.15555,1.60107 -2.12062,3.13602 -2.1444,3.41112 -0.027,0.31302 2.07498,1.64003 5.61754,3.54682 3.11343,1.67586 8.05405,4.36129 10.97878,5.96771 2.92473,1.60644 5.41846,2.93265 5.54164,2.94666 0.12322,0.014 -0.22886,-1.05232 -0.78198,-2.36908 -1.79841,-4.28138 -2.4523,-8.37917 -2.24689,-14.07728 0.26468,-7.3434 1.88554,-12.99436 5.69744,-19.86099 0.97989,-1.76514 1.69298,-3.4406 1.58455,-3.72327 -0.0852,-0.22202 -0.35895,-0.34198 -1.32423,-0.37953 z m -30.67534,1.48741 -5.27984,0.12617 c -2.90374,0.0696 -5.33529,0.17675 -5.40344,0.23827 -0.0682,0.0615 0.0687,1.46867 0.30404,3.12661 0.522,3.67825 0.25703,8.31888 -0.66236,11.60262 -0.36915,1.31843 -0.64326,2.40997 -0.60911,2.42538 0.0341,0.0154 1.60633,0.88857 3.49326,1.94082 5.80082,3.2348 9.93273,5.40774 10.2923,5.41225 0.18868,0.002 1.09008,-1.30092 2.00317,-2.89639 1.30806,-2.2857 1.61353,-3.10425 1.44182,-3.85951 -0.11984,-0.52719 -1.42409,-4.81926 -2.89873,-9.53765 z m -63.30817,5.35343 -0.90006,0.1679 c -0.49502,0.0925 -3.57567,0.60705 -6.84577,1.14307 -3.27013,0.536 -6.06499,1.10864 -6.21107,1.27276 -0.38708,0.43486 -2.76756,6.76366 -2.76456,7.35005 0.003,0.60803 1.62701,5.42727 4.96625,14.73877 1.38751,3.86908 3.02672,8.54047 3.643,10.38064 0.61628,1.84017 1.20789,3.33945 1.31468,3.33221 0.10679,-0.006 1.35238,-1.85669 2.76756,-4.11034 1.41519,-2.25366 3.11325,-4.94591 3.77369,-5.98227 0.6604,-1.03637 2.09903,-3.29373 3.19673,-5.01665 l 1.99564,-3.13264 -0.8257,-1.25265 c -2.36584,-3.59016 -4.054,-9.80601 -4.08676,-15.04792 z m -19.82874,3.46442 c -0.14443,-0.0571 -3.634957,0.45234 -7.756402,1.132 -4.121445,0.67966 -7.879196,1.29665 -8.350927,1.37127 -2.785386,0.44061 -11.624367,1.94302 -12.320096,2.09413 -0.793508,0.17234 -0.750723,0.25875 1.058379,2.13284 2.053141,2.1269 5.380954,6.02297 7.859432,9.20138 6.57895,8.43687 13.176737,21.76311 15.864602,32.04268 1.064284,4.07031 1.861947,7.97801 1.925782,9.43662 0.01888,0.43016 0.848811,-0.59426 2.2238,-2.74507 1.20656,-1.88738 3.08476,-4.82152 4.17371,-6.52014 1.08895,-1.69862 2.92663,-4.55521 4.08374,-6.3482 1.15713,-1.79299 2.45462,-3.88839 2.88315,-4.65625 l 0.77895,-1.39591 -7.73479,-13.91491 -7.734798,-13.91542 1.653903,-3.90523 c 0.909645,-2.14809 1.535995,-3.95269 1.391565,-4.00979 z m -30.263754,5.09354 -1.818739,2.48118 c -1.000256,1.36453 -2.148092,2.94393 -2.550961,3.51014 -0.402876,0.56621 -1.584069,2.18762 -2.624333,3.60315 -1.040274,1.41551 -2.021746,2.80436 -2.181081,3.08589 -0.159334,0.28153 -0.402284,0.39886 -0.540244,0.26088 -0.217258,-0.2173 4.541985,-8.59376 6.449768,-11.3518 0.369278,-0.53385 0.589205,-1.0534 0.488484,-1.15412 -0.100727,-0.10078 -7.061563,0.96143 -15.468591,2.36003 -0.872037,0.14507 -1.401655,0.22774 -2.185604,0.35689 a 102.92292,102.94682 0 0 0 46.954054,53.08649 c 0.09865,-0.15092 0.306199,-0.47448 0.380433,-0.58713 1.032504,-1.56666 1.029485,-1.49495 0.245747,-6.07929 -0.677618,-3.96364 -2.71349,-11.05684 -4.235014,-14.75587 -0.232904,-0.56621 -0.77973,-1.93446 -1.215174,-3.04066 -2.373281,-6.02894 -8.066804,-15.70065 -12.569361,-21.35192 -3.510909,-4.40661 -4.481133,-5.54538 -6.768891,-7.9462 z m 101.618284,4.79044 c -0.17205,0 -0.92881,1.22501 -1.68154,2.72246 -1.51733,3.01855 -3.70723,5.91609 -6.24171,8.25837 l -1.67098,1.54421 5.3778,7.80696 c 2.95799,4.29374 5.46919,7.80645 5.58038,7.80596 0.11115,-3.4e-4 1.11337,-1.58363 2.22681,-3.51768 1.11341,-1.93407 2.56487,-4.44271 3.22587,-5.57512 2.16133,-3.70274 3.64456,-6.27577 5.16927,-8.96763 1.71921,-3.03523 1.8064,-2.80096 -1.70917,-4.5954 -1.0587,-0.54039 -3.73395,-1.99532 -5.94469,-3.23268 -2.21081,-1.23733 -4.15999,-2.24945 -4.33204,-2.24945 z m -46.03338,7.83612 -1.62426,2.51588 c -3.58952,5.56076 -6.18203,9.59649 -8.94342,13.92144 -1.59505,2.49819 -3.32119,5.20072 -3.83549,6.00541 -0.5143,0.80467 -1.41089,2.23519 -1.99263,3.17887 -0.58173,0.94369 -1.62776,2.60472 -2.32431,3.69111 -2.46861,3.85028 -6.82785,10.72677 -7.04478,11.11301 -0.162455,0.28922 0.16115,0.30441 1.23527,0.0573 2.51687,-0.57888 2.7619,-0.62822 5.74418,-1.16267 15.91433,-2.85203 31.08513,0.4877 40.32086,8.87664 0.93826,0.85223 1.76053,1.49705 1.8273,1.43311 0.0668,-0.0639 -0.0611,-1.78578 -0.28397,-3.82633 -0.22292,-2.04054 -0.45838,-4.09697 -0.52314,-4.56876 -0.0648,-0.47184 -0.21646,-1.86162 -0.33672,-3.0884 -0.12025,-1.22678 -0.28013,-2.77064 -0.35531,-3.43122 -0.0752,-0.66058 -0.30358,-2.74525 -0.50758,-4.63261 -0.20397,-1.88736 -0.43273,-3.89498 -0.50858,-4.46119 -0.0758,-0.56621 -0.39077,-3.42282 -0.69955,-6.34823 -0.30876,-2.9254 -0.61501,-5.62792 -0.68096,-6.0054 -0.0659,-0.37746 -0.13172,-0.85943 -0.14572,-1.07068 -0.0154,-0.23209 -0.83732,-0.40227 -2.07657,-0.43029 -5.35823,-0.12114 -10.92373,-3.55025 -15.57314,-9.59446 z m 62.35582,1.31751 c -0.27355,-0.0158 -0.29922,0.14998 -0.42919,0.32423 -1.37114,1.83824 -6.20233,8.59513 -6.92117,9.6799 -0.45526,0.68705 -1.0342,1.4557 -1.28651,1.70808 -0.25234,0.25237 -0.45834,0.57311 -0.45834,0.71277 0,0.13967 -0.27184,0.55352 -0.60408,0.91939 -0.33223,0.36587 -1.55093,1.99644 -2.70775,3.62376 l -2.10319,2.95871 6.3955,9.33358 6.39549,9.33356 0.23671,-2.08354 c 0.1301,-1.1459 0.55844,-3.28008 0.95233,-4.74271 0.39389,-1.46265 1.04036,-3.43156 1.43631,-4.37524 1.88741,-4.49837 5.90414,-9.16274 9.89677,-11.49204 2.76272,-1.61177 7.40164,-3.26353 10.09077,-3.59309 l 2.02831,-0.24881 -4.25814,-2.30826 c -14.79149,-8.01766 -17.84319,-9.70277 -18.66382,-9.75029 z m -26.68959,3.97963 -3.00629,1.84077 c -1.65352,1.01238 -3.09403,1.8408 -3.20075,1.8408 -0.10675,0 -1.00896,0.36927 -2.00518,0.82084 -0.99622,0.45158 -2.96909,1.0936 -4.38431,1.42659 -1.41519,0.33299 -2.61138,0.63232 -2.65798,0.66503 -0.0704,0.0494 2.26189,21.92681 2.81732,26.42737 0.32038,2.59603 1.21316,10.87509 1.21316,11.25177 0,0.2074 0.38562,-0.14612 0.85736,-0.78567 0.47173,-0.63954 0.85785,-1.25275 0.85785,-1.36273 0,-0.41844 3.74466,-4.0747 5.18434,-5.06189 1.97417,-1.35373 4.88077,-2.66378 7.57147,-3.41315 3.2837,-0.91452 11.64539,-0.82841 16.3561,0.1684 1.95406,0.41349 3.71113,0.84919 3.90433,0.96864 0.19322,0.11943 0.29226,0.0642 0.22062,-0.12266 -0.0717,-0.18682 -5.43964,-8.06267 -11.9291,-17.50196 z m 49.52612,9.15111 c -1.21274,-0.0381 -2.48506,0.24491 -4.44258,0.71429 -10.15927,2.43603 -16.87749,10.22441 -18.74273,21.72741 -0.2804,1.72943 -0.51083,3.39094 -0.5116,3.6926 -4.6e-4,0.20211 1.33944,2.32186 3.23443,5.17449 a 102.92292,102.94682 0 0 0 33.10268,-25.5502 c -1.56001,-0.84724 -2.65321,-1.45173 -4.17923,-2.27309 -4.58423,-2.46737 -6.43975,-3.42218 -8.46097,-3.4855 z m -92.30398,24.90277 c -5.22857,0.0302 -11.04728,0.6955 -16.49833,1.94583 l -3.280156,0.75251 -1.296084,2.02576 a 102.92292,102.94682 0 0 0 48.04862,11.98817 102.92292,102.94682 0 0 0 4.30537,-0.16085 c -0.041,-0.35355 -0.0717,-0.67491 -0.11759,-1.03198 l -0.39148,-3.05423 -1.9243,-1.96092 c -4.79286,-4.88455 -11.9553,-8.36825 -20.27853,-9.86237 -2.50546,-0.44978 -5.43038,-0.66007 -8.56752,-0.64192 z m 53.68223,0.019 c -5.68947,-0.004 -5.91079,0.0238 -9.03889,1.10687 -5.25325,1.81894 -9.17631,5.03054 -11.84066,9.69399 l -0.9805,1.71662 0.38045,3.22514 c 0.0372,0.31606 0.051,0.47697 0.0824,0.75199 a 102.92292,102.94682 0 0 0 38.54333,-9.64625 c -1.80643,-2.58272 -3.26047,-4.62679 -3.39375,-4.71502 -0.20484,-0.13566 -2.07095,-0.67051 -4.14656,-1.18833 -3.369,-0.84047 -4.39919,-0.94196 -9.60582,-0.94501 z" />
  </g>
</svg>
